<svg xmlns="http://www.w3.org/2000/svg" xmlns:xlink="http://www.w3.org/1999/xlink" width="50" height="94" viewBox="0 0 50 94"><defs><path id="acu1a" d="M240.55 1017.9a16.73 16.73 0 0 1 1.68-10.59 16.9 16.9 0 0 1 3.37 20.06 16.7 16.7 0 0 1-5.05-9.46zm14.8 9.24a16.59 16.59 0 0 1 10.62-1.3 16.78 16.78 0 0 1-18.3 8.76 16.66 16.66 0 0 1 7.69-7.46zm-7.48 26.41a16.65 16.65 0 0 1 7.86-7.28 16.87 16.87 0 0 1-9.74 17.84c-.54-3.61.1-7.3 1.88-10.56zm-6.44 35.3a16.62 16.62 0 0 1-9.75-4.4 16.76 16.76 0 0 1 20.17 2.01 16.6 16.6 0 0 1-10.42 2.4zm-9.57-23.45a16.7 16.7 0 0 1-6.15-8.78h.27a16.8 16.8 0 0 1 16.07 12.05 16.6 16.6 0 0 1-10.19-3.27zm7.72-18.96a16.86 16.86 0 0 1-10.85-17.17 16.64 16.64 0 0 1 8.3 6.75 16.74 16.74 0 0 1 2.55 10.42zm11.48-7.23c8.65 0 16.77-5.4 19.82-14.04.39-1.11-.19-2.33-1.3-2.72a20.8 20.8 0 0 0-15.97.81 48.2 48.2 0 0 1 4.21-4.84 2.12 2.12 0 1 0-3-3.01 52.74 52.74 0 0 0-3.1 3.4 21.07 21.07 0 0 0-8.8-16.42 2.12 2.12 0 0 0-2.96.5 21 21 0 0 0-3.6 15.73 20.94 20.94 0 0 0 7.55 12.9c-.7 1.63-1.31 3.28-1.84 4.95a20.87 20.87 0 0 0-14.6-12 2.12 2.12 0 0 0-2.54 1.6 21.1 21.1 0 0 0 14.75 24.88c-.06 2.26.04 4.51.27 6.76a20.82 20.82 0 0 0-17.15-5.1 2.13 2.13 0 0 0-1.78 2.42 20.94 20.94 0 0 0 8.33 13.8 20.79 20.79 0 0 0 14.53 3.99c.87 2.02 1.87 4 3 5.92a20.95 20.95 0 0 0-19.74 3.74 2.14 2.14 0 0 0-.3 3 20.85 20.85 0 0 0 16.29 7.72c4.33 0 8.51-1.34 12.06-3.86 2.39 2.35 5 4.47 7.76 6.3a2.1 2.1 0 0 0 2.94-.6c.65-.98.38-2.3-.6-2.95a47.51 47.51 0 0 1-18.58-23.68 21.12 21.12 0 0 0 12.6-25.56 2.12 2.12 0 0 0-2.63-1.45 20.88 20.88 0 0 0-12.53 10.1l-.24.48c.02-4.53.67-9.05 1.96-13.43 1.73.45 3.47.66 5.19.66z"/></defs><g><g transform="translate(-221 -1002)"><use fill="#faab00" xlink:href="#acu1a"/></g></g></svg>