<svg xmlns="http://www.w3.org/2000/svg" xmlns:xlink="http://www.w3.org/1999/xlink" width="50" height="94" viewBox="0 0 50 94"><defs><path id="n2wta" d="M588 1064.12a16.65 16.65 0 0 1-7.85-7.28 16.74 16.74 0 0 1-1.88-10.56 16.87 16.87 0 0 1 9.73 17.84zm3.9 17.93c3.69-.37 7.31.48 10.42 2.4a16.75 16.75 0 0 1-20.17 2.01 16.61 16.61 0 0 1 9.74-4.41zm-3.5-54.68a16.74 16.74 0 0 1-1.67-10.6 16.71 16.71 0 0 1 5.04-9.46 16.9 16.9 0 0 1-3.37 20.06zm-20.37-1.52c3.56-.75 7.26-.31 10.61 1.29a16.67 16.67 0 0 1 7.68 7.46 16.78 16.78 0 0 1-18.3-8.75zm40.25 30.77a16.81 16.81 0 0 1-16.33 12.05 16.8 16.8 0 0 1 16.33-12.05zm-3-27.35c.3 3.64-.57 7.28-2.55 10.42a16.65 16.65 0 0 1-8.31 6.76 16.86 16.86 0 0 1 10.86-17.18zm-13.02 43.66a20.8 20.8 0 0 0 12.4-4.1 20.95 20.95 0 0 0 8.32-13.8 2.13 2.13 0 0 0-1.78-2.43 20.93 20.93 0 0 0-17.16 5.12c.24-2.25.34-4.51.28-6.77a20.86 20.86 0 0 0 11.99-8.98 21 21 0 0 0 2.76-15.9 2.12 2.12 0 0 0-2.54-1.6 20.87 20.87 0 0 0-14.6 12 52.08 52.08 0 0 0-1.84-4.94 21.15 21.15 0 0 0 3.95-28.64 2.11 2.11 0 0 0-2.96-.5 20.95 20.95 0 0 0-8.81 16.41c-.98-1.16-2-2.3-3.1-3.39a2.12 2.12 0 0 0-3 0 2.13 2.13 0 0 0 0 3.01 47.8 47.8 0 0 1 4.22 4.84 20.8 20.8 0 0 0-15.98-.81c-1.1.4-1.68 1.6-1.29 2.72a21.05 21.05 0 0 0 25 13.38 48.2 48.2 0 0 1 1.97 13.45 20.96 20.96 0 0 0-12.77-10.6 2.12 2.12 0 0 0-2.63 1.45 21 21 0 0 0 1.74 16.03 20.86 20.86 0 0 0 10.85 9.54 47.5 47.5 0 0 1-18.57 23.67 2.13 2.13 0 0 0 1.17 3.91c.4 0 .8-.11 1.17-.35a52.13 52.13 0 0 0 7.76-6.3 20.95 20.95 0 0 0 28.35-3.87 2.14 2.14 0 0 0-.3-3 20.83 20.83 0 0 0-19.74-3.76 51.64 51.64 0 0 0 3-5.9c.71.07 1.43.1 2.14.1z"/></defs><g><g transform="translate(-563 -1002)"><use fill="#faab00" xlink:href="#n2wta"/></g></g></svg>