<svg xmlns="http://www.w3.org/2000/svg" xmlns:xlink="http://www.w3.org/1999/xlink" width="92" height="132" viewBox="0 0 92 132"><defs><path id="enuqa" d="M382.86 1043.24l5.3 71.04c.29 3.8 3.14 6.72 6.55 6.72h52.58c3.41 0 6.26-2.92 6.55-6.72l5.3-71.04c4.87-4.11 7.86-10.62 7.86-17.57 0-5.7-1.97-11.1-5.42-15.15l1.02-13.58a7.88 7.88 0 0 0-1.72-5.57 6.28 6.28 0 0 0-4.83-2.37h-70.1c-1.83 0-3.59.86-4.83 2.37a7.86 7.86 0 0 0-1.72 5.57l1.02 13.58a23.43 23.43 0 0 0-5.42 15.15c0 6.95 3 13.46 7.86 17.57z"/></defs><g><g transform="translate(-375 -989)"><use fill="#fff" fill-opacity="0" stroke="#faab00" stroke-miterlimit="50" stroke-width="5" xlink:href="#enuqa"/></g></g></svg>