<svg xmlns="http://www.w3.org/2000/svg" xmlns:xlink="http://www.w3.org/1999/xlink" width="33.92" height="28.92" viewBox="0 0 33.92 28.92"><defs><path id="9fqna" d="M1099.05 32.06c.1.02.15.1.15.2l-.02.22c0 .07.03.14.09.18l.26.16 1.23 2.48c.03.08.13.09.18.03.62-.68 1.36-1.48 2.24-2.4a.2.2 0 0 0 0-.28c-.44-.47-.9-.96-1.41-1.48l-.07-.3a.19.19 0 0 0-.13-.15l-.2-.05a.2.2 0 0 1-.15-.2l.02-.26c0-.11-.07-.2-.17-.2-.25-.02-.74.06-1.42.56-.68.5-.9.94-.98 1.19-.03.1.03.2.14.24zm13.33 9.17c-.39-.56-.9-1.01-1.5-1.34l-1.62-.87c-.32-.17-.61-.4-.86-.69l-.82-.94a.12.12 0 0 0-.2.02 139.97 139.97 0 0 1-2.47 4.66c-.12.21-.2.45-.24.7a5.16 5.16 0 0 0 0 1.59l.01.1c.1.67.37 1.32.76 1.88l8.23 11.74c.42.6 1.11.92 1.83.83.81-.1 1.95-.41 3.12-1.27a6.85 6.85 0 0 0 2.16-2.6c.32-.67.25-1.46-.17-2.06zm-9.01 3.22l.29-1.85c.06-.37.18-.73.36-1.05.6-1.06 2.13-3.87 4.5-8.73l.26-.16c.06-.04.1-.11.1-.18l-.03-.22c0-.1.06-.18.15-.2l.24-.06c.1-.03.17-.14.14-.24-.07-.25-.3-.7-.98-1.2-.68-.5-1.16-.57-1.41-.56-.1 0-.19.1-.18.2l.02.27a.2.2 0 0 1-.14.2l-.2.05a.19.19 0 0 0-.14.15l-.07.3a175.33 175.33 0 0 0-6.63 7.16c-.25.28-.54.52-.86.7l-1.62.86c-.6.33-1.11.78-1.5 1.34l-8.23 11.75c-.42.6-.49 1.39-.17 2.05.35.76 1 1.75 2.16 2.6a6.64 6.64 0 0 0 3.1 1.28c.72.09 1.43-.23 1.85-.83l8.23-11.74c.4-.56.65-1.2.76-1.89z"/></defs><g><g transform="translate(-1087.07 -30)"><g><g><use fill="#fff" xlink:href="#9fqna"/></g></g></g></g></svg>