<svg xmlns="http://www.w3.org/2000/svg" xmlns:xlink="http://www.w3.org/1999/xlink" width="230" height="71" viewBox="0 0 230 71"><defs><path id="598qa" d="M171.8 31.17h.24v.37h-.24zm18.63 14.21c2.99 3.27 4.53 5.15 4.66 5.56.12.37.16.7.16 1zm-.2 0l-.74-1.03.21-.17.73 1.08zm-.82-1.11l-.16-.2.12-.17.2.24zm-.29-.3l-.33-.5.22-.11.31.49zm-11.89-12.71h-.25l.17-.8h.25zm19.41 3.9h.24v.65h-.24zm0-1.71h.24v.5h-.24zm0-1h.24v.8h-.24zm7.36 27.1c0-1.57-.09-3.35-.25-5.35-.08-.78-.12-1.4-.17-1.78l-.27-18.23.03-.33.13-.99c.11-1 .16-1.95.16-2.9v-3.73c0-.37-.08-.66-.25-.9-.44-.21-.93-.34-1.47-.34-.85 0-1.26.28-1.26.82v12.03c0 .65.08 1.65.2 2.97.13 1.3.2 2.28.2 2.95v9.95c0 .2-.03.37-.07.48a5.61 5.61 0 0 1-1.03-1.24c-.25-.95-.41-2.27-.45-4.05.04.9.04-.5.04-4.2 0-.4-.04-1.03-.08-1.81-.04-.83-.08-1.45-.08-1.86 0-.13.12-.42.12-.54v-3.32c0-1.04.09-2.57.29-4.64.2-2.08.28-3.6.28-4.64 0-1.16-.53-1.74-1.6-1.74-1 0-1.5.45-1.5 1.37 0 .54.28 1.98.28 2.52 0 .63-.11 1.33-.4 2.08-.04-.3-.13-1.17-.17-2.62a5.3 5.3 0 0 0-.5-2.44c-.44-.21-.84-.33-1.22-.33-.37 0-.68.08-1.01.29-.42.2-.62.5-.62.83 0 .33.29.99.33 1.2.12 2.03.2 3.52.2 4.55l.78 12.89a298 298 0 0 1-7.88-10.2c-4.22-5.58-6.34-8.7-6.34-9.31 0-.13.04-.2.08-.3a2.52 2.52 0 0 0-1.63-.7c-.46 0-.78.25-.99.7-.04.1-.11.54-.32 1.34-.12-.47-.25-.75-.33-.8-.78-.54-2-.78-3.67-.78-.74 0-1.1.24-1.1.78 0 1.04 0 1.45.03 1.25-.04.33-.36 1.29-.36 1.74l.03.78-.32-.11c0-.34.2-1.25.2-1.58 0-1.78 0-2.57-.04-2.28-1.19-.29-1.83-.45-1.96-.45-.53 0-.82.37-.82 1.11 0 1.04-.08 2.4-.2 4.02-.61 7-.94 16.45-1.07 28.3.54.37.82.58.9.58.82 0 1.47-.25 1.92-.78.46-.54.94-.8 1.4-.8.77 0 1.13 0 1.1.05.16-.05.41-.33.78-.8.11-2.52.44-6.62.97-12.3.66-6.75 1.15-10.27 1.43-10.56l.33.37-1.96 22.25v.25c-.04.62.24.91.77.91h.75c.97 0 1.46-1.03 1.46-3.07v-.82c0-.17.13-2.33.41-6.42.37-4.93.58-7.96.7-9.12.03-.33.12-.54.24-.66 1.6 1.99 2.78 3.48 3.56 4.51 1.06 1.25 1.87 2.16 2.45 2.78l5.22 5.76c3.24 3.56 5.53 6.5 6.92 8.87.28 0 .65-.13 1.1-.38.57-.37.86-.95.9-1.78.04-.83.24-1.33.7-1.53.61.78.98 1.28 1.1 1.57.16.38.32.95.45 1.83.33.2.57.33.77.33.53 0 1.68-.96 1.68-1.5zm-63.91-6.96c.2-.58.41-1.03.65-1.32a474 474 0 0 1 13.5-1.62 11.2 11.2 0 0 1 1.13 2.36zm2.41-9.94l-.2-.08.16-.46h.2zm.98 2.77l4.7-9.02c1.96 4.59 3.27 7.28 3.97 7.98v1.04zm15.12 6.3c-.45.05-.81.13-1.06.16-.45-1.11-.78-1.98-1.02-2.52h.94c.49 1.04.86 1.83 1.14 2.37zm-1.96-3.68c-.45 0-.77-.17-.94-.5l.77.13.17.37zm-2.2-2.99a76.83 76.83 0 0 1-1.23-3.23c.77 1.45 1.4 2.53 1.76 3.23zm-1.6-3.68l-.16-.38.2-.04.17.42zm14.75 11.18c-.53-.7-1.71-.74-1.91-1.04a21.8 21.8 0 0 1-3.11-4.51c.53-.3.93-.54 1.22-.67 0-.16-.2-.4-.57-.78-.36-.37-.61-.58-.78-.58a3.5 3.5 0 0 1-1.47-.2c-1.02-.63-4.04-6.35-9.15-17.12-.53-1.12-1.6-1.66-3.27-1.66h-.86a21.45 21.45 0 0 1-2.13 4.69 95.6 95.6 0 0 0-2.49 4.47l-2.36 5.26c-1.65 3.7-2.7 5.51-3.15 5.51h-.2l-.1-.08a264.65 264.65 0 0 0 8.26-16.74c.4-.96.62-1.98.62-3.06-.78-.59-1.35-.87-1.76-.87-.25 0-.53.08-.86.28a24.8 24.8 0 0 1-1.39 4.27c-3.55 8.24-6.45 14.38-8.66 18.4l-2.33 3.73c-1.07 1.78-1.6 3.02-1.6 3.81 0 .5.95 1.36 1.43 1.36-.07 0 .17-.03.75-.16.2-.25.4-.75.64-1.49.2-.58.53-1.08 1.06-1.49l.22.25c-.75 1.53-1.32 2.69-1.68 3.48 0 .37.7 1 1.06 1 .66 0 1.06-.14 1.22-.34.41-1.49.83-2.23 1.23-2.23.2 0 .33.11.4.37a4.66 4.66 0 0 0-.73 1.9c0 .05 0 .16.04.3.46.28.86.4 1.19.4.09 0 .5-.57 1.19-1.73.7-1.2 1.34-1.78 1.92-1.83l9.23-.62.16.13 7.73-.63c.16 0 .94 1.29 2.29 3.86 1.35 2.53 2.25 3.81 2.7 3.81l.65-.17.16-.7c-1.59-3.03-2.74-5.26-3.51-6.7l.12-.26h.9c.2.37.45.79.7 1.16.32.45.64.7 1.02.7-.05 0 .28-.2.98-.58 1.3 2.37 2.16 3.56 2.53 3.56.78 0 1.75-.9 1.75-1.7 0-.29-.64-1.44-1.96-3.48 1.43-.37 2.29-.82 2.66-1.28zm-64.23-22.54c-.3 3.1-.46 7.17-.46 12.27 0 2.03.05 4.27.09 6.63h-1.06l.93-16.58c.17-1.03.33-1.78.5-2.32zm19.33 24.86h.65v.25h-.65zm-19.46-25.44h.25v.42h-.25zm26.57 20.39c-.37-.33-.61-.63-.78-.83l-.73-.12-.25-.09c-2.48 0-5 .09-7.48.3l-2.2.24c-.9.13-1.64.17-2.21.17-5.52 0-9.04-.13-10.63-.42a2.5 2.5 0 0 1-.12-.83c0-6.92.28-12.55.9-16.9.24-1.79.37-2.61.37-2.57 0-1.37-.66-2.03-1.96-2.03-.2 0-.74.12-.95.12l-.04-.08c-.04-.3-.04-.54-.08-.74-.61-.5-1.1-.76-1.55-.76-.33 0-1.06.46-1.26.46-.54 0-1.81-.57-2.34-.57-.28 0-.61.7-.65 1.03-.29 2.65-.45 7.5-.45 14.5 0 4.72 0 7.25-.04 7.58-.13.17-.25.26-.37.26v6.5c.7.08 1.1.25 1.27.5-.13.53-.2.95-.24 1.24a7.8 7.8 0 0 0-1.32-.13c-.36 0-.65.04-.86.13v1.32c0 .75 1.12 1.17 3.32 1.2 15.94.3 23.94.47 23.98.47 1.68 0 2.5-.42 2.5-1.25 0-.46-.29-.7-.9-.75l-.25-.2a13.2 13.2 0 0 1 3.06-.25c-.03-.3.1-.63.33-1 .3-.45.5-.78.53-.9l-.33-.38c-1.5-.04-2.56-.08-3.18-.04h-1.1c1.8-.33 3.15-.58 4.04-.7 0-.21.04-.47.17-.79-.3-.21-.5-.42-.62-.55a4.01 4.01 0 0 0-1.67-.32l-19.25.58a1.8 1.8 0 0 1-1.06-.34c6-.78 9.03-1.15 9.03-1.15 1.19 0 2.95.04 5.31.15 2.38.13 4.17.17 5.36.17.45 0 1.1-.08 1.96-.2 1.01-.17 1.63-.34 1.84-.54.03-.12.08-.34.03-.62.26-.04.54-.16.87-.37zm-1.76-1.04h.03c-.03-.04-.03-.04-.03 0zm-59.99-4.14h.37v.25h-.37zm-2.9-5.05c0 .2-.12.45-.32.82-.21-.99-.33-1.58-.33-1.78l.37-10.9v2.36c-.04 1.95 0 4.06.12 6.34 0 .21.04.75.08 1.58.04.66.08 1.2.08 1.58zm8.5.91h.37v.24h-.37zm.41-.13h.37v.25h-.37zm-6.46-.54c.12-5.59.33-9.48.62-11.69.2 1.58.37 3.45.44 5.6.05 1.86.13 3.77.17 5.63zm7.56.58l-.16-.08.16-.37.2.08zm.33-.5h.36v.26h-.36zm14.96-.62c-.29.7-.57 1.21-.86 1.42-.53.2-1.03.37-1.5.57l-.38.79c-4.33 1.57-9.93 2.44-16.76 2.57v-.63c.33-.28 1.84-.54 4.5-.82 1.14-.13 2.74-.3 4.78-.42.29-.2 1.1-.41 2.53-.62 1.84-.3 3.2-.57 4.1-.83 1.59-.5 2.81-1.15 3.59-2.03zm-16.02-1.16l-2.53.7h-.66c.08-2.06.13-3.34.13-3.88 0-.46-.05-.76-.13-.87.13-1.04.2-1.79.17-2.29v-.33l.49-.24c-.17 0 .36-.1.57-.1h1.22c1.1 0 2.9.3 5.4.84 2.53.54 4.21 1.04 5.06 1.49v1.65zM94 34.78c0 .37-.16.95-.45 1.65-.49-1.78-1.26-2.73-1.26-2.94 0-.2.15-.7.15-.91.3.09.62.37.99.9.37.55.57.97.57 1.3zm2.65 1.16c0-2.99-2.16-5.35-6.53-7.04a39.64 39.64 0 0 0-10.26-2.32l-10.95-1.25c-1.72-.2-2.78-.29-3.15-.29-.24 0-.45 0-.65.04-.37.33-.57.5-.53.5-.45 0-1.4-.45-1.84-.45-1.02 0-1.68.08-1.96.28-.45.3-.65.87-.65 1.82L60 58.85c0 .5.42 1.5.86 1.5 1.02 0 1.63-.63 1.76-1.88.08.1.24.13.53.13.86 0 1.43-.41 1.63-1.28.09-.3.13-1.08.13-2.32 0-.63-.04-1.62-.08-2.9-.05-1.3-.05-2.28-.05-2.95 0-.28 0-.87.05-1.82.11-.16.24-.24.4-.24.04.86.04 1.78.04 2.73 0 .99-.04 2.49-.12 4.51-.04 1.99-.08 3.49-.08 4.48 0 .16 0 .83.04 2.03.37.42.7.62 1.02.62.62 0 1.6-.67 1.6-1.2 0-.7-.3-2.4-.3-3.1V47.08h1.2l.24.24-.57 12.1c.74.5 1.15.75 1.27.75.48 0 1.38-.7 1.38-1.2 0-1.08-.04-2.7-.08-4.81-.04-2.12-.04-3.73-.04-4.81a9 9 0 0 1 .25-2.44l6.04-.37c2.34-.17 4.34-.42 6.02-.7 3.22-.6 5.64-1.25 7.3-2.04 2.46-1.2 4.25-2.9 5.37-5.18.56-1.16.84-2.07.84-2.7z"/><path id="598qb" d="M225.3 81.34c-.52.09-.87.17-1.12.26l2.15-25.17c.6.87.86 1.64.78 2.42zM233.03 65c0 1.81-.17 4.58-.51 8.3a138.1 138.1 0 0 0-.43 8.3c-1.63-.61-2.4-1.3-2.32-1.9l1.8-17.3c.95.26 1.46 1.12 1.46 2.6zm-.86-7.53h1.12v.51h-1.12zm41.85 16.6c-.78.6-6.54 2-17.45 4.24-10.82 2.16-17.35 3.29-19.67 3.29V70.44c1.28 0 4.3.52 5.41.52.69 0 2.58-.26 3.35-.26h.17c2.16.08 6.7.34 13.67.95 8.85.78 13.74 1.65 14.52 2.43zm9.96 4.59c-3.26 2.77-9.44 4.93-18.55 6.57-7.3 1.3-14.18 2-20.54 1.9h-6.1c.6 0 1.9-.17 3.87-.6 2.05-.43 3.52-.7 4.47-.7 8.84 0 20.96-2.94 36.51-8.9l.69.34zM237.5 65.25v-1.38l21.82 2.77zm-7.73-29.14c-.43.78-.86 2.85-1.2 6.22-.18 2.34-.35 4.59-.6 6.93-.61.08-1.21-.27-1.12-.87l2.49-14.53zm4.8 7.79h-.5l.6-6.15h.51zm25.96 22.82h.77v.52h-.77zm-16.24-16.95h1.12v.52h-1.12zm39.78 18.95c0 .68-1.55 2.24-2.23 2.24-.18 0-.61-.34-1.2-.95-2.15-2.16-5.16-3.9-8.85-5.19-4.3-1.48-9.88-2.77-16.76-3.8-5.76-.78-11.51-1.47-17.27-2.26 0-.34.17-.95.6-1.73.52 0 3.1.18 7.82.53.25.09.6.17 1.03.25l8.68 1.48c5.4.95 10.57 1.99 15.37 3.2 8.51 2.24 12.8 4.32 12.8 6.23zM235 36.89h.42v.77h-.42zm28.7 4.5c-12.12 3.02-20.28 5.01-24.5 5.79v-1.3c0-1.3.7-4.59 2.16-9.95 7.56 1.3 11.34 1.9 11.34 1.9 4.38.96 8 2.09 11 3.55zm12.46 3.1l-3.7 2.69-.42-1.47 4.46-2.25zm-1.21-6.48c-3.17 1.38-5.15 2.08-5.92 2.08-.26 0-.61-.26-1.12-.86a11.69 11.69 0 0 0-3.1-2.34c-.25-.18-1.46-.78-3.44-1.82h1.55c.6 0 2.58.44 5.93 1.3a61.1 61.1 0 0 1 6.1 1.64zM290 78.83c0-.43-.35-1.21-.95-2.34-.6-1.12-1.03-1.9-1.45-2.15.42-.53.94-1.04 1.37-1.65a3.8 3.8 0 0 0 .43-1.9c0-4.33-4.21-8.05-12.55-11.24a63.21 63.21 0 0 0-9.62-2.86 80.2 80.2 0 0 1-5.25-1.3l.35-.08c.09.08.35.08.69.08.85 0 3.18-.51 7.05-1.55 9.2-2.51 13.75-6.57 13.75-12.1-.53-1.3-.86-2.35-1.12-3.04-1.98-5.36-7.74-9.08-17.27-11.07-5.33-1.12-12.8-1.73-22.52-1.9A6.75 6.75 0 0 1 240.6 24c-.6.09-2.75 1.48-3.18 1.48-.6 0-1.89-.53-2.49-.53-1.2 0-4.81-.17-10.74-.43l-4.72 54.91c-.09 1.47-.18 2.95-.18 4.24 0 1.81.1 3.29.26 4.24.34.09.69.09.95.09.6 0 1.2-.18 1.72-.44l.17.7-2.75.25c-1.12.18-1.63.7-1.63 1.65 0 .94.68 1.73 2.05 2.33 1.21.52 2.33.78 3.36.78.43 0 1.72-.6 2.06-.69 2.06-.35 3.87-.52 5.5-.52.17 0 .43 0 .7.08.24.62.59 1.13.94 1.73.5.78 1.02 1.13 1.45 1.13.69 0 1.55-.43 2.67-1.21.34-.78.52-1.3.6-1.73.6 0 1.89.26 2.5.26 11.59 0 21.22-.86 28.77-2.5 5.85-1.3 10.06-2.43 12.72-3.46 5.76-2.17 8.68-4.67 8.68-7.53z"/><path id="598qc" d="M144.26 81.01h.14v2.41h-.14zm1.61 1c-.1.03-.16.05-.21.05V80.9h.43l-.02 1.06-.2.04zm-1.2-7.37h.11v.58h-.12zm1.87-.17c0 .03-.04.3-.14.8-.03.14-.05.42-.07.83 0 .33-.02.61-.08.8h-.16l.1-2.28.05-.19.03-.24c0-.06-.06-.1-.18-.1l.45-.07zm1.02 3.73l4.55-.52c.13-.02.26.08.42.29-3.09.15-4.75.23-4.97.23zm-1.09-5.5c0-.2.05-.29.14-.29.06.08.1.15.1.2a.87.87 0 0 1-.24.09zm2.04-1.87h1.13v.13h-1.13zm11.28-.9l-16.1-.2c-.06.25-.11.44-.18.57l-.2 7.8c-.01.17-.06.43-.14.8-.08.37-.1.64-.1.83v7.37l.6.34c.1 0 .26-.04.47-.12.2-.08.35-.12.46-.12.9 0 2.25.02 4.04.06 1.8.04 3.15.07 4.05.07a257.05 257.05 0 0 0 7.9-.13c.5 0 .86-.01 1.12-.03.46-.12.82-.21 1.06-.29v-.3a1.83 1.83 0 0 1-.54-.2c.1-.14.15-.3.15-.46-.56-.22-.9-.33-1.03-.33l-10.11-.16c-.66-.02-1.17-.05-1.5-.11l7.92-.18c.11 0 .27 0 .47.04.2.02.35.02.46.02.12 0 .3-.02.56-.07.26-.05.44-.08.57-.08.08 0 .17.03.3.08.13.05.23.08.3.08.1 0 .23-.05.4-.16.18-.1.3-.16.35-.16.04 0 .07.03.1.09.03.04.06.07.08.07.19 0 .46-.24.81-.71a1.9 1.9 0 0 0-.37-.23l.63-.37c0-.28-.1-.49-.3-.65-.2-.17-.45-.25-.72-.25-.43 0-1.1.04-1.98.12-.87.08-1.54.13-1.97.13-.1.08-.19.13-.27.13-.08 0-.2-.03-.35-.07a1.25 1.25 0 0 0-.36-.09l-8.22.38a.98.98 0 0 1-.72-.28c-.23-.2-.35-.4-.35-.63a8.52 8.52 0 0 0 .23-1.7l2.71-.32 2.71-.26c1-.08 1.9-.12 2.72-.12.53 0 1.17-.05 1.94-.15 1.04-.13 1.65-.29 1.8-.47.07-.05.1-.19.1-.38 0-.34-.13-.51-.38-.51-.1 0-.23.03-.43.06-.18.05-.32.07-.41.07-.18 0-.27-.08-.27-.25.09-.03.2-.04.34-.04h.2c.3 0 .51-.08.64-.24v-.36c-.13-.1-.31-.13-.57-.13-.16 0-.38.01-.69.04-.3.03-.54.05-.7.05-.24 0-.46-.03-.6-.09.46-.07.8-.14 1-.23.31-.15.49-.4.53-.78a1.2 1.2 0 0 0-.94-.33l-9.11.46c-.06 0-.13-.04-.18-.13 0-.6.03-1.04.1-1.33.07-.3.1-.53.1-.66v-.4c.02-.14.07-.25.18-.3h1.15c.22 0 1.93-.1 5.12-.25l2.8-.07c1.11-.05 2.03-.15 2.75-.34.35-.1.57-.25.68-.5-.8-.15-1.23-.24-1.29-.24h-11.14v-.27c.13-.1.3-.18.52-.2l13.42-.64.1-.18c.2-.01.43-.08.71-.2-.27-.14-.47-.24-.6-.34.04-.06.16-.11.36-.19.2-.07.3-.15.32-.28-.64-.24-1.7-.38-3.21-.4zm-28.74 11.95h.13v.3h-.13zm.23-.98h.14v.26h-.14zm-1.54.51c-.09-.09-.14-.16-.14-.22 0-.08.42-1.87 1.23-5.38v.62c0 .28-.37 1.94-1.1 4.98zm4.72 2.77a41.7 41.7 0 0 0-1-3.84c.51 1.4.92 2.44 1.19 3.15 0 .19-.06.42-.19.69zm.55-3.37h.13v.2h-.13zm-.07-.32h.13v.22h-.13zm-.09-.29h.14v.2h-.14zm3.35 1.23h.14v.2h-.14zm-1.34-.17a9.19 9.19 0 0 1-.17-.72l1.73-5.87zm2.54-4.2l-.12-.04.12-.21.1.04zm-.84-2.48h-.12l.23-.99h.11zm3.77-3.2a2.31 2.31 0 0 0-1.15-.46c.08-.24.1-.4.1-.47a.56.56 0 0 0-.06-.27l-.36-.25c-.16-.11-.28-.18-.33-.18-.06 0-.16.01-.27.04l-.27.03c-.46-.4-.76-.6-.9-.6-.1 0-.32.07-.67.2a42151.05 42151.05 0 0 1-2.64 8.93 28.9 28.9 0 0 1-1.2-3.73c0-.13.05-.34.16-.6.1-.28.16-.5.16-.63 0-.1-.15-.3-.45-.6-.3-.1-.48-.18-.55-.26l-.43-1.1c-.2-.5-.46-.76-.79-.76-.05 0-.1.02-.17.05l-.15.04c-.05 0-.2-.18-.42-.54-.23-.35-.45-.53-.66-.53-.18 0-.47.2-.89.63.05.14.07.3.07.46 0 .29-.07.63-.22 1.05-.2.55-.3.9-.34 1.03-.65 2.97-1.04 4.7-1.18 5.18a87.6 87.6 0 0 1-1.67-6.28 8.6 8.6 0 0 1-.11-.8 3.56 3.56 0 0 0-.16-.8 2.13 2.13 0 0 0-.63-.47.32.32 0 0 1-.27.13c-.06 0-.16-.07-.27-.2a.77.77 0 0 1-.35-.03 1.44 1.44 0 0 0-.3-.06c-1 0-1.66.18-2.02.54v.26c.36.95.72 2.2 1.06 3.76.44 2.01.73 3.26.88 3.77.32 1.05.56 1.84.75 2.37.66 2.73 1.14 4.8 1.44 6.16.37.2.63.35.8.47a.26.26 0 0 1 .15-.06c.32 0 .48.1.48.33v.2c0 .14.08.22.24.22.26 0 .46-.05.6-.13l.45-.4c.2.64.36 1.12.45 1.45h.36c.42-.4.73-1.05.93-1.95.44-2.05.77-3.47 1-4.26.1.35.34 1.39.74 3.1.3 1.28.62 2.29.95 3.02.2.42.4.62.63.62.19 0 .38-.09.58-.27.2-.17.3-.35.3-.53 0-.08-.09-.27-.27-.6a1.98 1.98 0 0 1-.27-.58c0-.08.05-.15.13-.21l.16-.13c.15-.23.28-.77.38-1.66.1-.87.22-1.39.37-1.53.14.34.2.55.2.65 0 .2-.06.5-.19.87-.13.39-.2.68-.2.9 0 .69.16 1.03.46 1.02l.81-.83c0 .16-.03.4-.1.7-.06.31-.1.54-.1.7 0 .1.06.26.18.45.12.2.23.3.32.3.2 0 .47-.18.8-.54.32-.36.48-.65.48-.85 0-.1-.01-.22-.05-.38s-.06-.3-.06-.38c0-.9.58-3.36 1.72-7.39l1.07-3.64c.51-1.8.76-3 .76-3.6zm-38.74 9.63h.14v2.41h-.14zm1.62 1l-.21.05V80.9h.42l-.02 1.06-.2.04zM104 74.64h.12v.58H104zm1.87-.17c0 .03-.03.3-.13.8-.03.14-.05.42-.07.83 0 .33-.03.61-.09.8h-.16l.12-2.28c0-.03 0-.1.03-.19l.03-.24c0-.06-.06-.1-.18-.1l.45-.07zm1.02 3.73l4.55-.52c.14-.02.27.08.43.29-3.1.15-4.75.23-4.98.23zm-1.08-5.5c0-.2.04-.29.13-.29.07.08.1.15.1.2a.77.77 0 0 1-.23.09zm2.03-1.87h1.13v.13h-1.13zm11.28-.9l-16.1-.2c-.05.25-.11.44-.18.57l-.2 7.8c0 .17-.06.43-.13.8-.07.37-.11.64-.11.83v7.37l.6.34c.11 0 .27-.04.47-.12.2-.08.36-.12.46-.12.91 0 2.25.02 4.05.06 1.79.04 3.14.07 4.04.07a256.7 256.7 0 0 0 7.91-.13c.49 0 .86-.01 1.11-.03.46-.12.82-.21 1.07-.29v-.3a1.83 1.83 0 0 1-.55-.2c.11-.14.16-.3.16-.46-.55-.22-.9-.33-1.04-.33l-10.1-.16c-.66-.02-1.17-.05-1.51-.11l7.93-.18c.1 0 .26 0 .46.04.2.02.36.02.47.02.11 0 .3-.02.56-.07.26-.05.44-.08.56-.08.08 0 .18.03.31.08s.23.08.3.08c.1 0 .22-.05.4-.16.17-.1.29-.16.35-.16.04 0 .06.03.1.09.02.04.05.07.08.07.18 0 .45-.24.82-.71-.17-.13-.3-.2-.39-.23l.63-.37c0-.28-.1-.49-.3-.65-.2-.17-.44-.25-.71-.25-.44 0-1.1.04-1.98.12-.88.08-1.55.13-1.98.13-.09.08-.18.13-.27.13-.08 0-.2-.03-.35-.07a1.25 1.25 0 0 0-.35-.09l-8.22.38a.97.97 0 0 1-.72-.28c-.23-.2-.35-.4-.35-.63a8.52 8.52 0 0 0 .22-1.7l2.72-.32 2.7-.26c1-.08 1.91-.12 2.72-.12.53 0 1.18-.05 1.95-.15 1.03-.13 1.64-.29 1.8-.47.06-.05.09-.19.09-.38 0-.34-.12-.51-.38-.51-.1 0-.23.03-.42.06-.18.05-.33.07-.42.07-.18 0-.27-.08-.27-.25.1-.03.2-.04.34-.04h.2c.3 0 .52-.08.64-.24v-.36c-.12-.1-.3-.13-.57-.13-.15 0-.37.01-.68.04-.31.03-.54.05-.7.05-.25 0-.45-.03-.6-.09.46-.07.8-.14.99-.23.32-.15.5-.4.54-.78a1.2 1.2 0 0 0-.95-.33l-9.1.46c-.06 0-.13-.04-.19-.13 0-.6.04-1.04.1-1.33.07-.3.1-.53.1-.66v-.4c.02-.14.08-.25.19-.3h1.14c.23 0 1.93-.1 5.13-.25l2.8-.07c1.1-.05 2.02-.15 2.75-.34.35-.1.57-.25.67-.5-.79-.15-1.22-.24-1.28-.24H107.5v-.27c.14-.1.31-.18.52-.2l13.43-.64.1-.18c.19-.01.43-.08.72-.2a5.63 5.63 0 0 1-.62-.34c.05-.06.16-.11.37-.19.2-.07.3-.15.31-.28-.63-.24-1.7-.38-3.2-.4zm-34.27 8.89c.17-.09.31-.16.43-.2 0 .07.02.13.05.18l-.48.02zm1.72-.16l.07-.16 2.16-.3.7.08c-1.11.26-2.09.38-2.93.38zm-1.47-2.64l-.16-.01v-3.78l.14.1c.1 1.44.15 2.48.13 3.14v.54zm6.42 3.05c.14 0 .2-.03.23-.1l4.7 6.88a22.38 22.38 0 0 1-4.93-6.78zm6.67 6.83l-.05-.2c-.75-.6-1.6-1.8-2.55-3.57 1.6 2.17 2.64 3.55 3.14 4.15zM86.48 75.8v-1.24c0-.1.02-.25.05-.44.04-.18.06-.34.06-.43 0-1.16.01-1.87.05-2.1 1.58.15 3.06.4 4.43.74 2.07.5 3.3 1.11 3.68 1.83-4.14.9-6.9 1.45-8.27 1.65zm5.11-5.17h.36v.1h-.36zm5.15 4.64a3 3 0 0 1-1.09.47h-.29c.1-.3.44-.55 1.04-.76.45-.12.91-.24 1.38-.38-.2.18-.54.4-1.04.67zm-4.12-4.5h.27v.13h-.27zm3.17 3.12c-.38-.34-.64-.61-.8-.78a8.63 8.63 0 0 0-1.19-.78c1.23.16 2.38.5 3.49 1-.83.37-1.34.56-1.5.56zm2.62-1.16c-.67-.34-1.2-.58-1.56-.77-1.13-.4-2.44-.75-3.96-1.06l.32-.12c.37.08.64.15.82.22l2.33.68c.87.27 1.62.6 2.24.95-.05.07-.1.1-.19.1zm2.3 13.35c-.98-.87-1.7-1.6-2.14-2.19a86.78 86.78 0 0 1-4.11-5.87c.67-.26 1.18-.43 1.53-.54.85-.31 1.5-.67 1.99-1.1.44-.38.9-.98 1.4-1.8l.5-.96c.26-.5.44-.75.57-.76l-.3-.7c-.1-.23-.28-.45-.52-.66-.7-.64-2.3-1.2-4.8-1.68a35.2 35.2 0 0 0-5.27-.67 58.04 58.04 0 0 0-2.97-.15c-.72 0-1.4.04-2.02.1l-.74.12-.56-.02c-.07-.1-.15-.13-.23-.13-.33 0-.71.3-1.15.88V85.7c.17.3.44.45.81.45.1 0 .21-.04.38-.1.15-.07.26-.11.33-.11.03 0 .07.02.11.04l.13.04c.24 0 .37-.27.37-.79l-.02-.18.06-.1c.3-.05.5-.18.58-.4.11-.26.17-1.73.17-4.39.04-.08.19-.11.45-.11l.1.06v3.56c0-.2-.05.33-.17 1.58-.07.08-.11.14-.11.18 0 .67.22 1.02.65 1.07.03 0 .08.03.15.08.07.06.11.07.14.07.1 0 .2-.04.31-.14a.6.6 0 0 0 .2-.23c.07-.39.11-2 .11-4.82 0-.5-.01-.98-.03-1.43l.05-.14c.4 0 1.52-.13 3.39-.4a36.2 36.2 0 0 0 4.66 6.53c1.43 1.52 2.41 2.3 2.93 2.3.1 0 .24-.05.46-.14.2-.1.37-.13.5-.13h.45l.47-.18c.17-.21.25-.36.25-.43 0-.06-.07-.17-.2-.34a2.18 2.18 0 0 1-.25-.33h.09c.07.05.26.23.54.53.21.24.4.37.59.37.67 0 1.02-.22 1.02-.65 0-.14-.28-.45-.84-.94zm-1.69 1.99h.03v-.01h-.03zm-36.1-3.96l-.29.07.57-6.5c.14.22.21.43.2.62zm1.91-2.07c-.07.95-.12 1.67-.12 2.14-.42-.17-.62-.33-.61-.5l.47-4.46c.26.06.39.28.39.67 0 .48-.04 1.2-.13 2.15zm-.1-4.1h.3v.14h-.3zm6.43 5.38c-2.86.57-4.58.86-5.18.86V81.3c.16 0 .4.02.72.06a5.1 5.1 0 0 0 1.13.04c.2-.03.35-.04.46-.04h.03c.58.02 1.78.1 3.6.25 2.34.21 3.61.42 3.83.63-.2.14-1.73.5-4.59 1.08zm7.2.1c-.86.72-2.48 1.28-4.88 1.7-1.93.34-3.73.5-5.4.49h-1.6c.15 0 .48-.05 1.02-.17.54-.11.92-.17 1.16-.17 2.33 0 5.53-.76 9.61-2.3l.19.09zm-12.23-3.46v-.36l5.75.71zm-2.35-5.92c-.04.6-.1 1.2-.15 1.78a.28.28 0 0 1-.22-.03c-.07-.05-.1-.1-.07-.18l.65-3.76.1.58a5.6 5.6 0 0 0-.31 1.61zm1.58.4h-.13l.16-1.58h.14zm6.83 5.9h.2v.14h-.2zm-4.27-4.38h.3v.14h-.3zm10.24 5.25c-.15.15-.27.22-.36.22-.05 0-.15-.08-.32-.24-.57-.55-1.35-1-2.32-1.34-1.13-.4-2.6-.72-4.41-.99l-4.55-.58c0-.08.06-.23.16-.44.14 0 .83.04 2.06.13l.27.07 2.28.38c1.44.24 2.78.51 4.05.83 2.24.58 3.37 1.11 3.37 1.6 0 .1-.08.2-.23.36zm-12.68-8.58h.11v.21h-.11zm1.1 2.66v-.33c0-.33.2-1.18.57-2.57l2.99.49c1.14.24 2.1.54 2.88.91-3.17.8-5.32 1.3-6.43 1.5zm9.73-.69l-.98.7-.1-.4 1.16-.57zm-1.88-1.14c-.07 0-.16-.08-.3-.22-.18-.2-.45-.4-.8-.6l-.91-.48h.4c.18 0 .7.12 1.57.33.9.22 1.42.36 1.6.44-.83.35-1.34.53-1.56.53zm5.28 9.39a1.84 1.84 0 0 0-.4-.54c.12-.14.25-.28.36-.43a.87.87 0 0 0 .12-.49c0-1.11-1.1-2.09-3.3-2.9-.75-.3-1.6-.53-2.54-.74l-1.37-.33.09-.03c.03.02.08.03.18.03.22 0 .84-.14 1.85-.4 2.42-.66 3.62-1.7 3.62-3.13l-.3-.78c-.5-1.4-2.02-2.35-4.54-2.86-1.4-.29-3.37-.45-5.92-.5-.29-.14-.49-.3-.62-.44-.06.01-.2.08-.42.2-.21.12-.35.18-.4.18-.08 0-.19-.02-.33-.07-.15-.04-.25-.07-.33-.07-.32 0-1.27-.04-2.83-.11l-1.24 14.18c-.03.4-.05.76-.05 1.1 0 .48.03.84.07 1.09l.25.02c.16 0 .32-.03.45-.11l.05.18c-.24.01-.48.04-.73.07-.28.05-.43.18-.43.42s.18.44.55.6c.31.14.6.2.88.2.06 0 .15-.02.28-.08.12-.05.21-.07.26-.1a9.43 9.43 0 0 1 1.45-.13l.18.02.25.45c.14.2.26.3.38.3.18 0 .41-.1.7-.32.09-.2.15-.34.16-.45l.33.03c.14.03.24.04.32.04 3.06 0 5.59-.22 7.58-.65 1.53-.32 2.65-.63 3.35-.9 1.51-.54 2.27-1.19 2.27-1.94 0-.11-.07-.31-.23-.61z"/><path id="598qd" d="M191.9 84.66l-.12-.07.19-.27.1.07zm2.85-5.36a.37.37 0 0 1-.07-.23.5.5 0 0 1 .07-.25h.27l.1.3a.73.73 0 0 1-.37.18zm-1.02-1.19a73.3 73.3 0 0 1-5.96-6.53l6.08 6.34zm4.86-2.93a18.92 18.92 0 0 1-2.52 2.7.85.85 0 0 0-.08-.24c.04-.25.81-1.12 2.3-2.62a80.59 80.59 0 0 1 2.85-2.8c-.46.44-1.3 1.43-2.55 2.96zm-2.6 2.47v-.02.02zm8.6-7.82c-.3-.25-.55-.38-.78-.38-.6.5-1.05.9-1.34 1.2a1.55 1.55 0 0 0-.42-.72c-.25-.26-.47-.38-.68-.38h-.16l-6.3 7.14a72.61 72.61 0 0 1-4.54-5 15.7 15.7 0 0 0-2.1-2.12.77.77 0 0 0-.46-.12c-.29 0-.68.3-1.16.88l-.25-.04c-.1-.02-.17-.04-.23-.04-.24 0-.47.1-.65.3a.88.88 0 0 0-.29.65c0 .12.26.49.77 1.11-.67.3-1 .64-1 1.04 0 .15.12.34.34.57 1.45 1.5 3.6 3.64 6.48 6.43l-4.95 5.27c.3.48.59.82.87 1.04l-1.26 1.64c.48.55.8.83.94.83.23 0 .49-.16.76-.46l1.63-2.01c.68-.81 1.27-1.43 1.79-1.86v.09l-1.69 2.13c-.86 1.13-1.3 1.82-1.3 2.06 0 .19.11.38.35.6.24.21.45.32.63.32.2 0 .41-.2.64-.58.17-.27.33-.55.48-.85.73-1.04 1.7-2.26 2.94-3.63l3.15-3.49c2.17-2.46 4.3-4.69 6.38-6.7.79-.76 1.18-1.27 1.18-1.52 0-.4-.29-.77-.87-1.12 1-.95 1.51-1.47 1.51-1.56 0-.22-.13-.47-.42-.72zm-36.6 9.24c.17-.09.31-.16.44-.2 0 .07.01.13.04.18l-.48.02zm1.74-.16l.07-.16c1.46-.2 2.19-.32 2.19-.32l.71.1c-1.13.26-2.13.38-2.97.38zm-1.48-2.7c-.05 0-.1 0-.17-.02V72.3l.14.1c.1 1.48.15 2.55.14 3.23v.55zm6.48 3.11c.13 0 .21-.03.22-.09l4.76 7.06a23.2 23.2 0 0 1-4.98-6.97zm6.73 7.01l-.05-.2c-.76-.62-1.61-1.84-2.57-3.67 1.6 2.23 2.67 3.65 3.17 4.27zm-11.82-10.35V74.7c0-.1.02-.26.06-.45.03-.19.05-.34.05-.44 0-1.2.02-1.92.05-2.16 1.6.16 3.08.4 4.47.76 2.1.52 3.34 1.15 3.72 1.88-4.18.93-6.97 1.5-8.35 1.7zm5.16-5.31h.37v.1h-.37zm5.2 4.76c-.55.33-.91.48-1.1.48h-.3c.1-.3.46-.56 1.06-.78l1.4-.38c-.2.17-.55.4-1.06.68zm-4.15-4.62h.27v.13h-.27zm3.2 3.2a9.69 9.69 0 0 1-.8-.8 9.26 9.26 0 0 0-1.21-.8c1.22.17 2.4.51 3.5 1.03-.83.38-1.33.57-1.5.57zm2.64-1.19l-1.57-.78a30.93 30.93 0 0 0-4-1.1l.32-.11c.36.07.64.15.82.22l2.35.7c.89.28 1.64.61 2.26.97-.05.07-.1.1-.18.1zm2.33 13.7c-1-.89-1.73-1.64-2.17-2.25a85.19 85.19 0 0 1-4.15-6.02c.68-.27 1.2-.44 1.55-.55.85-.32 1.52-.7 2-1.12a8.2 8.2 0 0 0 1.42-1.86l.5-.98c.26-.5.46-.77.57-.78l-.3-.73c-.1-.23-.27-.45-.51-.67-.72-.66-2.35-1.23-4.87-1.72-2-.4-3.76-.63-5.32-.68a56.05 56.05 0 0 0-3-.16c-.73 0-1.4.04-2.02.1l-.75.12-.58-.01c-.08-.1-.15-.14-.22-.14-.34 0-.73.3-1.17.9v16.16c.16.3.44.46.83.46.09 0 .21-.04.37-.1.16-.08.27-.12.33-.12l.13.04.12.04c.25 0 .36-.27.36-.8l-.01-.19.06-.1c.3-.05.51-.2.6-.4.1-.28.15-1.78.15-4.51.05-.08.2-.12.46-.12.02 0 .06.02.12.07v3.65c0-.21-.06.34-.19 1.62-.07.08-.11.14-.11.19 0 .68.22 1.04.66 1.09.04 0 .09.03.15.08.07.06.12.08.15.08.09 0 .2-.05.3-.15.12-.1.19-.18.2-.23.08-.4.12-2.06.12-4.95l-.02-1.47.04-.14c.4 0 1.54-.13 3.43-.4a36.5 36.5 0 0 0 4.7 6.68c1.45 1.57 2.43 2.36 2.97 2.36.08 0 .24-.05.46-.14.2-.1.38-.14.5-.14h.4c.03 0 .04 0 .05.02l.48-.2c.16-.22.25-.36.25-.44 0-.06-.07-.17-.2-.35a2.51 2.51 0 0 1-.26-.34h.1c.07.05.25.24.55.55.2.25.4.37.6.37.67 0 1.01-.22 1.01-.66 0-.14-.28-.46-.84-.96zm-1.7 2.03c0 .02 0 .02 0 0z"/></defs><g><g transform="translate(-60 -24)"><g><use fill="#fff" xlink:href="#598qa"/></g><g><use fill="#fff" xlink:href="#598qb"/></g><g><use fill="#fff" xlink:href="#598qc"/></g><g><use fill="#fff" xlink:href="#598qd"/></g><g><use fill="#fff" xlink:href="#598qa"/></g></g></g></svg>