<svg xmlns="http://www.w3.org/2000/svg" xmlns:xlink="http://www.w3.org/1999/xlink" width="93" height="29" viewBox="0 0 93 29"><defs><path id="pxdka" d="M656.8 2899.5h.1v.15h-.1zm7.64 5.76a16.63 16.63 0 0 1 1.9 2.25c.06.16.08.29.08.4zm-.08 0l-.3-.42.08-.06.3.43zm-.34-.45l-.07-.08.06-.07.08.1zm-.12-.12l-.13-.2.09-.05.13.2zm-4.87-5.15h-.1l.07-.32h.1zm7.96 1.58h.1v.26h-.1zm0-.7h.1v.2h-.1zm0-.4h.1v.32h-.1zm3.01 10.99c0-.64-.04-1.36-.1-2.17l-.07-.72-.11-7.4.01-.13.05-.4c.05-.4.07-.79.07-1.17v-1.52a.63.63 0 0 0-.1-.36 1.44 1.44 0 0 0-.6-.14c-.36 0-.52.11-.52.33v4.88c0 .26.03.67.08 1.2.05.53.08.93.08 1.2v4.03c0 .09-.01.15-.03.2-.25-.27-.4-.44-.42-.5a7.2 7.2 0 0 1-.18-1.65c.01.37.01-.2.01-1.7l-.03-.73-.03-.76c0-.05.05-.17.05-.22v-1.34c0-.42.03-1.04.12-1.88.08-.84.11-1.46.11-1.89 0-.46-.22-.7-.65-.7-.42 0-.62.18-.62.55 0 .22.12.81.12 1.03 0 .25-.05.54-.17.84-.02-.12-.05-.47-.07-1.06-.01-.47-.08-.8-.2-1a1.23 1.23 0 0 0-.5-.12.74.74 0 0 0-.42.11c-.17.09-.25.2-.25.34 0 .13.12.4.13.49.05.82.09 1.42.09 1.84l.32 5.23c-.83-1-1.9-2.37-3.24-4.14-1.72-2.26-2.6-3.52-2.6-3.77 0-.06.03-.09.04-.12a1.04 1.04 0 0 0-.67-.29c-.18 0-.31.1-.4.29-.02.03-.05.22-.13.54-.05-.2-.1-.3-.14-.32-.32-.22-.82-.32-1.5-.32-.3 0-.46.1-.46.32 0 .42 0 .58.02.5-.02.13-.15.52-.15.7l.02.32-.14-.04c0-.14.08-.5.08-.64 0-.73 0-1.04-.01-.93-.49-.11-.75-.18-.8-.18-.22 0-.34.15-.34.45 0 .42-.03.97-.08 1.63-.25 2.84-.39 6.67-.44 11.47.22.15.34.24.37.24.34 0 .6-.1.79-.32.18-.22.38-.32.57-.32.31 0 .46 0 .45.02.06-.02.17-.14.32-.32.05-1.03.18-2.69.4-5 .27-2.73.47-4.16.58-4.28l.14.16-.8 9.02v.1c-.02.25.1.37.31.37h.3c.4 0 .6-.42.6-1.25v-.33l.17-2.6c.15-2 .24-3.23.29-3.7.01-.13.05-.22.1-.27.65.8 1.14 1.41 1.46 1.83l1 1.13 2.14 2.33a23.33 23.33 0 0 1 2.83 3.6c.12 0 .27-.05.46-.16.23-.15.35-.38.36-.72.02-.33.1-.53.29-.62.25.32.4.52.45.64.07.15.13.39.19.74.13.08.23.13.31.13.22 0 .69-.38.69-.6zm-26.19-2.82c.09-.24.17-.42.27-.54 2.46-.32 4.3-.54 5.53-.66.28.5.43.81.47.96zm1-4.03l-.1-.04.08-.18h.08zm.4 1.12l1.92-3.66c.8 1.86 1.34 2.95 1.63 3.24v.42zm6.19 2.56c-.18.01-.33.04-.44.06-.18-.45-.31-.8-.41-1.02h.38c.2.42.35.74.47.96zm-.8-1.5c-.19 0-.32-.07-.39-.2l.32.05.06.15zm-.9-1.21l-.51-1.31.72 1.3zm-.66-1.5l-.07-.15.09-.01.06.17zm6.04 4.54c-.22-.29-.7-.3-.78-.42-.39-.39-.81-1-1.28-1.83l.5-.27c0-.07-.08-.17-.23-.32-.15-.15-.25-.23-.32-.23-.31 0-.52-.04-.6-.09-.42-.25-1.66-2.57-3.75-6.93-.22-.46-.65-.68-1.34-.68h-.35a8.65 8.65 0 0 1-.87 1.9c-.57.97-.9 1.58-1.02 1.82l-.97 2.13c-.68 1.5-1.11 2.23-1.3 2.23h-.08l-.03-.03c1.7-3.2 2.81-5.46 3.38-6.79.17-.39.25-.8.25-1.24-.32-.24-.55-.35-.72-.35-.1 0-.21.03-.35.11a9.98 9.98 0 0 1-.57 1.73 93.76 93.76 0 0 1-3.55 7.46l-.95 1.51c-.44.73-.66 1.23-.66 1.55 0 .2.4.55.59.55l.3-.06c.09-.1.17-.3.27-.6.08-.24.22-.44.43-.61l.09.1-.69 1.41c0 .15.29.4.44.4.27 0 .43-.05.5-.13.17-.6.34-.9.5-.9.09 0 .14.04.17.14-.2.36-.3.6-.3.77l.01.12c.19.12.36.17.5.17.03 0 .2-.23.48-.7.28-.5.55-.73.78-.75l3.79-.25.06.06 3.17-.26c.07 0 .38.52.94 1.57.55 1.02.92 1.54 1.1 1.54l.27-.07.07-.28-1.44-2.72.05-.1h.37l.28.47c.13.18.27.28.42.28-.02 0 .11-.08.4-.24.54.97.89 1.45 1.04 1.45.32 0 .72-.37.72-.69 0-.12-.27-.59-.8-1.41.58-.15.93-.33 1.08-.52zm-26.32-9.14c-.11 1.26-.18 2.9-.18 4.98l.03 2.68h-.43l.38-6.72c.07-.42.14-.72.2-.94zm7.92 10.08h.27v.1h-.27zm-7.97-10.31h.1v.17h-.1zm10.89 8.26a2.8 2.8 0 0 1-.32-.34l-.3-.04-.1-.04c-1.02 0-2.05.04-3.07.12l-.9.1c-.37.05-.67.07-.9.07-2.27 0-3.7-.05-4.36-.17a1 1 0 0 1-.05-.34 50.32 50.32 0 0 1 .52-7.9c0-.55-.27-.81-.8-.81l-.39.04-.02-.03c-.01-.12-.01-.22-.03-.3-.25-.2-.45-.3-.63-.3-.14 0-.44.18-.52.18-.22 0-.74-.23-.96-.23-.12 0-.25.28-.26.42a62.84 62.84 0 0 0-.2 5.88v3.07c-.06.07-.11.1-.16.1v2.64c.29.03.45.1.52.2a5.4 5.4 0 0 0-.1.5 3.23 3.23 0 0 0-.54-.05.92.92 0 0 0-.35.05v.54c0 .3.46.47 1.36.49l9.83.18c.68 0 1.02-.17 1.02-.5 0-.19-.12-.28-.37-.3l-.1-.09c.25-.07.67-.1 1.25-.1-.01-.12.04-.25.14-.4l.22-.37-.14-.15c-.62-.02-1.05-.03-1.3-.02h-.45c.73-.13 1.28-.23 1.65-.28 0-.09.02-.2.07-.32-.12-.09-.2-.17-.25-.22a1.66 1.66 0 0 0-.69-.14l-7.88.24a.74.74 0 0 1-.44-.14l3.7-.46c.49 0 1.2.01 2.18.06.97.05 1.7.07 2.2.07.18 0 .44-.03.8-.09.41-.06.66-.13.75-.21.01-.05.03-.14.01-.25.1-.02.22-.07.36-.16zm-.72-.42h.01-.01zm-24.58-1.68h.15v.1h-.15zm-1.2-2.05c0 .09-.04.19-.12.34-.09-.4-.14-.64-.14-.73l.15-4.41v.95c-.01.8 0 1.65.06 2.58l.03.63.03.64zm3.5.37h.14v.1h-.15zm.16-.05h.15v.1h-.15zm-2.65-.22c.06-2.26.14-3.84.26-4.74.08.64.15 1.4.18 2.27l.07 2.29zm3.1.24l-.07-.03.07-.15.08.03zm.14-.2h.15v.1h-.15zm6.12-.26c-.11.29-.23.5-.35.58l-.61.23-.16.32c-1.77.64-4.07 1-6.86 1.04v-.25c.13-.12.75-.22 1.84-.33.47-.06 1.12-.12 1.96-.18.12-.08.45-.16 1.03-.25.76-.12 1.31-.23 1.68-.33.66-.2 1.16-.47 1.47-.83zm-6.56-.47l-1.04.29h-.26l.05-1.58c0-.18-.02-.3-.05-.35.05-.42.08-.72.06-.93v-.13l.2-.1c-.06 0 .15-.04.24-.04h.5c.45 0 1.19.12 2.21.34 1.04.22 1.73.42 2.08.6v.68zm8.02-1.36c0 .16-.07.39-.18.68-.2-.73-.52-1.11-.52-1.2 0-.08.06-.28.06-.37.12.04.26.15.4.37.16.22.24.39.24.52zm1.09.47c0-1.2-.89-2.16-2.68-2.85-1.1-.44-2.51-.76-4.2-.94l-4.49-.5a15.6 15.6 0 0 0-1.29-.12l-.27.01c-.15.14-.23.2-.21.2-.19 0-.57-.18-.76-.18-.42 0-.68.03-.8.12-.19.12-.27.35-.27.74l-.05 12.81c0 .2.17.6.35.6.42 0 .67-.25.72-.75.04.04.1.05.22.05.35 0 .59-.16.67-.52.03-.12.05-.43.05-.94l-.03-1.17c-.02-.53-.02-.93-.02-1.2l.02-.74c.05-.06.1-.1.16-.1.02.35.02.73.02 1.11 0 .4-.02 1.01-.05 1.83l-.03 1.82.01.82c.15.17.29.25.42.25.26 0 .66-.27.66-.49 0-.28-.12-.97-.12-1.26v-4.08h.48l.1.1-.23 4.9c.3.21.47.31.52.31.2 0 .57-.28.57-.49l-.03-1.95c-.02-.85-.02-1.5-.02-1.94 0-.44.03-.77.1-1a399 399 0 0 1 2.47-.14c.96-.07 1.78-.17 2.47-.29 1.32-.24 2.31-.5 3-.83 1-.48 1.73-1.17 2.19-2.1.23-.46.35-.83.35-1.09z"/><path id="pxdkb" d="M677.94 2920.42l-.45.1.86-10.27c.25.35.35.67.32.98zm3.11-6.67c0 .74-.07 1.87-.2 3.39a57.2 57.2 0 0 0-.18 3.39c-.65-.25-.96-.53-.93-.78l.73-7.07c.38.1.58.46.58 1.07zm-.34-3.08h.45v.21h-.45zm16.85 6.78c-.31.25-2.63.82-7.02 1.73-4.36.89-7 1.35-7.93 1.35v-4.56c.52 0 1.73.21 2.18.21.28 0 1.04-.1 1.35-.1h.07c.87.03 2.7.14 5.5.38 3.57.32 5.54.68 5.85 1zm4.02 1.88c-1.32 1.13-3.8 2.01-7.48 2.68-2.94.53-5.7.81-8.27.78h-2.46c.24 0 .77-.07 1.56-.25.83-.18 1.42-.28 1.8-.28 3.56 0 8.45-1.2 14.7-3.64l.28.14zm-18.73-5.48v-.57l8.8 1.14zm-3.1-11.9a8.78 8.78 0 0 0-.5 2.54 84.7 84.7 0 0 1-.24 2.83c-.24.03-.48-.11-.45-.36l1-5.93zm1.93 3.18h-.21l.24-2.51h.21zm10.45 9.32h.31v.21h-.31zm-6.54-6.92h.45v.21h-.45zm16.02 7.73c0 .29-.62.92-.9.92-.07 0-.24-.14-.48-.39a9.28 9.28 0 0 0-3.57-2.12 38.93 38.93 0 0 0-6.75-1.55c-2.32-.32-4.63-.6-6.95-.92 0-.14.07-.39.24-.7.2 0 1.25.06 3.15.2.1.04.24.08.42.11l3.49.6c2.18.4 4.26.82 6.2 1.3 3.42.93 5.15 1.78 5.15 2.55zm-19.76-13h.17v.32h-.17zm11.56 1.84a214.2 214.2 0 0 1-9.86 2.37v-.53c0-.53.27-1.88.86-4.07 3.05.54 4.57.78 4.57.78 1.77.4 3.22.85 4.43 1.45zm5.02 1.27l-1.49 1.1-.17-.6 1.8-.92zm-.49-2.65a9.29 9.29 0 0 1-2.38.85c-.1 0-.25-.1-.45-.35-.28-.32-.7-.64-1.25-.96-.1-.07-.59-.31-1.39-.74h.63c.24 0 1.04.18 2.39.53 1.34.32 2.18.57 2.45.67zm6.06 16.68c0-.18-.14-.5-.38-.96-.24-.46-.42-.78-.59-.88.17-.21.38-.42.55-.67.11-.18.18-.46.18-.78 0-1.77-1.7-3.29-5.06-4.59a25.2 25.2 0 0 0-3.87-1.17c-1.35-.31-2.04-.5-2.11-.53l.14-.03c.03.03.14.03.27.03.35 0 1.28-.2 2.84-.63 3.7-1.03 5.54-2.69 5.54-4.95-.21-.53-.35-.95-.45-1.24-.8-2.18-3.12-3.7-6.96-4.52-2.14-.46-5.15-.7-9.07-.77a2.72 2.72 0 0 1-.93-.71c-.24.04-1.1.6-1.28.6-.24 0-.76-.21-1-.21-.49 0-1.94-.07-4.33-.18l-1.9 22.43c-.04.6-.07 1.2-.07 1.73 0 .74.03 1.35.1 1.73a1.55 1.55 0 0 0 1.07-.14l.07.28-1.1.11c-.45.07-.66.28-.66.67s.28.71.83.96c.48.2.93.31 1.35.31.17 0 .7-.24.83-.28.83-.14 1.56-.21 2.21-.21.07 0 .18 0 .28.03.1.25.24.46.38.71.2.32.42.46.59.46.28 0 .62-.17 1.07-.5.14-.31.21-.52.24-.7.25 0 .77.1 1.01.1 4.67 0 8.55-.35 11.6-1.02 2.35-.53 4.04-.99 5.11-1.41 2.32-.88 3.5-1.9 3.5-3.07z"/><path id="pxdkc" d="M644.47 2919.8h.05v.97h-.05zm.65.4c-.04.02-.07.02-.09.02v-.45h.17v.42c-.02 0-.05 0-.08.02zm-.49-2.94h.05v.23h-.05zm.75-.07l-.05.32a2.7 2.7 0 0 0-.03.33c0 .13-.01.24-.03.32h-.07a123.95 123.95 0 0 1 .07-1.08c0-.03-.02-.04-.07-.04l.18-.03zm.41 1.49l1.83-.2c.06-.01.1.02.17.1l-2 .1zm-.43-2.2c0-.08.01-.12.05-.12l.04.08a.35.35 0 0 1-.1.04zm.81-.75h.46v.05h-.46zm4.54-.36l-6.47-.08a1 1 0 0 1-.07.23l-.09 3.12c0 .07-.02.17-.05.32-.03.15-.04.26-.04.33v2.95l.24.13c.04 0 .1-.01.19-.04a.52.52 0 0 1 .18-.05c.37 0 .9 0 1.63.03a87.52 87.52 0 0 0 5.25-.04l.43-.12v-.11a.74.74 0 0 1-.22-.08.31.31 0 0 0 .06-.2 1.8 1.8 0 0 0-.41-.13l-4.07-.06c-.26 0-.47-.02-.6-.04l3.19-.07.18.01.19.01.22-.03.23-.03.12.03.13.03c.03 0 .08-.02.15-.06a.41.41 0 0 1 .14-.06c.02 0 .03 0 .04.03l.04.03c.07 0 .18-.1.32-.28a.76.76 0 0 0-.15-.1l.25-.14a.3.3 0 0 0-.12-.26.43.43 0 0 0-.28-.1c-.18 0-.45.01-.8.05-.35.03-.62.05-.8.05-.03.03-.07.05-.1.05a.55.55 0 0 1-.14-.03.5.5 0 0 0-.14-.04l-3.3.16a.4.4 0 0 1-.3-.11c-.09-.08-.14-.17-.14-.26l.05-.22c.03-.2.04-.35.04-.46l1.1-.12 1.08-.11c.4-.03.77-.05 1.1-.05.2 0 .47-.02.78-.06.41-.05.66-.11.72-.18.03-.03.04-.08.04-.16 0-.13-.05-.2-.15-.2-.04 0-.1 0-.18.02a.71.71 0 0 1-.16.03c-.08 0-.11-.03-.11-.1a.45.45 0 0 1 .14-.01h.08c.12 0 .2-.04.25-.1v-.14c-.05-.04-.12-.06-.23-.06-.06 0-.15 0-.27.02l-.28.02a.72.72 0 0 1-.25-.04c.2-.02.33-.05.4-.09.13-.06.2-.16.22-.31a.48.48 0 0 0-.38-.14l-3.66.2c-.02 0-.05-.03-.07-.06 0-.24.01-.42.04-.54.03-.12.04-.2.04-.26v-.16c0-.06.03-.1.07-.12h.46l2.06-.1c.38 0 .75-.02 1.13-.03.44-.02.81-.06 1.1-.13.14-.04.23-.1.27-.2l-.51-.1h-4.48v-.1a.38.38 0 0 1 .2-.08l5.4-.26.04-.07c.08-.01.18-.04.29-.08l-.25-.14c.02-.02.07-.05.15-.08.08-.02.12-.06.13-.1-.26-.1-.69-.16-1.3-.17zm-11.55 4.78h.05v.12h-.05zm.09-.4h.05v.12h-.05zm-.62.21c-.04-.03-.05-.06-.05-.08l.49-2.16v.25c0 .11-.15.78-.44 2zm1.9 1.11c-.08-.42-.22-.93-.4-1.53l.47 1.26c0 .07-.02.16-.07.27zm.22-1.35h.05v.08h-.05zm-.03-.12h.06v.09h-.06zm-.03-.12h.05v.08h-.05zm1.34.5h.06v.07h-.06zm-.54-.08a3.66 3.66 0 0 1-.07-.28l.7-2.35zm1.02-1.68l-.04-.01.04-.09.05.02zm-.33-.99h-.05l.1-.4h.03zm1.51-1.28a.93.93 0 0 0-.46-.18l.04-.2c0-.03 0-.06-.02-.1l-.15-.1-.13-.07c-.03 0-.07 0-.11.02a.76.76 0 0 1-.11 0c-.18-.15-.3-.23-.36-.23-.04 0-.13.02-.27.08a18025.14 18025.14 0 0 1-1.06 3.57c-.32-.9-.48-1.4-.48-1.5 0-.04.02-.13.06-.23a.8.8 0 0 0 .06-.25c0-.04-.06-.12-.18-.24a.57.57 0 0 1-.22-.1l-.17-.45c-.08-.2-.19-.3-.32-.3-.02 0-.04 0-.07.02l-.06.01c-.02 0-.08-.07-.17-.21-.09-.14-.17-.22-.26-.22-.07 0-.19.09-.36.26.02.05.03.12.03.18 0 .12-.03.25-.09.42l-.13.41a59.26 59.26 0 0 1-.48 2.07 34.9 34.9 0 0 1-.67-2.5 3.43 3.43 0 0 1-.04-.33 1.42 1.42 0 0 0-.07-.32.86.86 0 0 0-.25-.19.13.13 0 0 1-.11.06c-.03 0-.06-.03-.11-.08l-.14-.01a.58.58 0 0 0-.12-.03c-.4 0-.67.08-.81.22v.1c.14.38.29.88.43 1.5.17.81.29 1.31.35 1.52.13.42.22.73.3.94.27 1.1.46 1.92.58 2.47l.32.19a.1.1 0 0 1 .06-.03c.13 0 .2.04.2.13v.08c0 .06.02.09.09.09.1 0 .18-.02.24-.05l.18-.16.18.58h.14c.18-.16.3-.42.38-.78.18-.82.3-1.39.4-1.7l.3 1.24c.12.5.25.9.38 1.2.08.17.16.25.26.25.07 0 .15-.03.23-.1.08-.08.12-.15.12-.22 0-.03-.04-.1-.11-.24a.8.8 0 0 1-.1-.23c0-.03.01-.06.05-.09l.06-.05c.06-.09.11-.3.15-.66.04-.35.09-.56.15-.61a1 1 0 0 1 .08.26c0 .08-.03.2-.08.35-.05.15-.07.27-.07.35 0 .28.06.42.18.41l.32-.33c0 .07 0 .16-.03.28-.03.12-.05.22-.05.28 0 .04.03.1.08.18.04.08.09.12.12.12.09 0 .2-.07.33-.22.12-.14.19-.25.19-.33 0-.04 0-.1-.02-.16a.7.7 0 0 1-.03-.15c0-.36.24-1.34.7-2.95l.43-1.46c.2-.72.3-1.2.3-1.44zm-15.57 3.85h.06v.97h-.06zm.65.4c-.04.02-.07.02-.09.02v-.45h.18l-.01.42-.08.02zm-.49-2.94h.05v.23h-.05zm.76-.07l-.06.32a2.7 2.7 0 0 0-.02.33c0 .13-.02.24-.04.32h-.06a79.95 79.95 0 0 1 .07-1.08c0-.03-.03-.04-.07-.04l.18-.03zm.4 1.49l1.84-.2c.05-.01.1.02.17.1l-2 .1zm-.43-2.2c0-.08.02-.12.05-.12l.04.08a.3.3 0 0 1-.09.04zm.82-.75h.45v.05h-.45zm4.53-.36l-6.47-.08a1 1 0 0 1-.07.23l-.08 3.12c0 .07-.03.17-.06.32l-.04.33v2.95l.24.13c.05 0 .11-.01.2-.04a.52.52 0 0 1 .18-.05c.36 0 .9 0 1.62.03a87.52 87.52 0 0 0 5.25-.04l.43-.12v-.11a.74.74 0 0 1-.22-.08.31.31 0 0 0 .07-.2 1.75 1.75 0 0 0-.42-.13l-4.06-.06c-.27 0-.47-.02-.6-.04l3.18-.07.19.01.18.01.23-.03.23-.03a.4.4 0 0 1 .12.03l.12.03c.04 0 .09-.02.16-.06a.41.41 0 0 1 .14-.06c.01 0 .03 0 .04.03 0 .02.02.03.03.03.08 0 .18-.1.33-.28a.89.89 0 0 0-.15-.1l.25-.14a.3.3 0 0 0-.12-.26.43.43 0 0 0-.29-.1c-.17 0-.44.01-.8.05-.35.03-.61.05-.79.05-.03.03-.07.05-.1.05a.55.55 0 0 1-.15-.03.5.5 0 0 0-.14-.04l-3.3.16c-.1 0-.2-.03-.3-.11-.09-.08-.13-.17-.13-.26a3.4 3.4 0 0 0 .09-.68l1.09-.12 1.09-.11c.4-.03.76-.05 1.09-.05.21 0 .47-.02.78-.06.42-.05.66-.11.73-.18.02-.03.03-.08.03-.16 0-.13-.05-.2-.15-.2-.04 0-.1 0-.17.02a.71.71 0 0 1-.17.03c-.07 0-.1-.03-.1-.1a.45.45 0 0 1 .13-.01h.08c.12 0 .2-.04.26-.1v-.14c-.05-.04-.13-.06-.23-.06-.06 0-.15 0-.28.02l-.28.02a.74.74 0 0 1-.24-.04c.19-.02.32-.05.4-.09.13-.06.2-.16.22-.31a.48.48 0 0 0-.38-.14l-3.67.2c-.02 0-.05-.03-.07-.06 0-.24.02-.42.04-.54.03-.12.04-.2.04-.26v-.16c.01-.06.03-.1.08-.12h.46l2.06-.1 1.12-.03c.45-.02.82-.06 1.1-.13.15-.04.24-.1.28-.2l-.52-.1h-4.48v-.1a.38.38 0 0 1 .21-.08l5.4-.26.04-.07.29-.08c-.11-.06-.2-.1-.25-.14.02-.02.06-.05.15-.08.07-.02.12-.06.12-.1a4.1 4.1 0 0 0-1.29-.17zm-13.77 3.56c.06-.04.12-.06.17-.08 0 .03 0 .05.02.07h-.2zm.69-.06l.03-.07.87-.12.28.03c-.45.1-.84.16-1.18.16zm-.6-1.06h-.06v-1.52l.06.04c.04.58.06 1 .05 1.26v.21zm2.59 1.22c.05 0 .08-.01.09-.04l1.89 2.75a8.95 8.95 0 0 1-1.98-2.71zm2.68 2.73l-.02-.08c-.3-.24-.64-.72-1.03-1.43.65.87 1.07 1.42 1.27 1.66zm-4.7-4.04v-.5l.01-.17a.89.89 0 0 0 .03-.17c0-.47 0-.75.02-.85.63.06 1.23.16 1.78.3.83.2 1.32.45 1.47.73-1.66.36-2.77.59-3.32.66zm2.05-2.07h.14v.04h-.14zm2.07 1.86a1.2 1.2 0 0 1-.44.19h-.12c.04-.12.18-.23.42-.3l.55-.16c-.07.07-.21.16-.41.27zm-1.66-1.8h.11v.05h-.1zm1.27 1.25a4.59 4.59 0 0 1-.31-.32c-.1-.08-.27-.19-.48-.3.49.05.95.19 1.4.4-.34.14-.54.22-.6.22zm1.06-.47l-.63-.3c-.45-.16-.98-.3-1.59-.43l.13-.05c.15.03.25.06.33.09.3.1.62.18.93.27.35.11.65.24.9.38a.09.09 0 0 1-.07.04zm.93 5.34a6.3 6.3 0 0 1-.87-.87 34.7 34.7 0 0 1-1.65-2.35l.61-.22c.35-.12.61-.27.8-.44.18-.15.37-.4.57-.72l.2-.38c.1-.2.18-.3.23-.3l-.13-.29a.74.74 0 0 0-.2-.26c-.29-.26-.93-.48-1.93-.67a14.22 14.22 0 0 0-2.72-.3 7.68 7.68 0 0 0-1.4.01l-.3.05-.23-.01c-.03-.04-.06-.05-.09-.05-.13 0-.29.11-.46.35v6.3c.06.12.17.18.32.18l.16-.04c.06-.03.1-.04.13-.04l.04.01c.03 0 .04.02.05.02.1 0 .15-.11.15-.32a.4.4 0 0 0 0-.07l.02-.04c.12-.02.2-.07.23-.16.05-.1.07-.7.07-1.75.02-.04.08-.05.18-.05 0 0 .02 0 .04.03v1.42l-.07.63c-.03.03-.04.05-.04.07 0 .27.09.41.26.43l.06.03.06.03c.04 0 .08-.02.12-.06a.24.24 0 0 0 .08-.09 19.3 19.3 0 0 0 .03-2.5l.02-.05c.16 0 .62-.05 1.37-.16a14.48 14.48 0 0 0 1.87 2.6c.57.62.97.93 1.18.93a.6.6 0 0 0 .18-.06.51.51 0 0 1 .2-.05H626.3l.2-.07c.06-.09.1-.15.1-.18 0-.02-.04-.06-.09-.13a.87.87 0 0 1-.1-.13h.04l.22.21c.08.1.16.15.23.15.27 0 .41-.1.41-.26 0-.06-.1-.18-.33-.38zm-.69.8h0zm-14.5-1.59a.99.99 0 0 1-.12.03l.22-2.6c.06.1.09.18.09.25zm.76-.82c-.03.38-.05.66-.05.85-.17-.06-.25-.13-.24-.2l.19-1.78c.1.02.15.11.15.27 0 .19-.02.48-.05.86zm-.04-1.64h.12v.05h-.12zm2.59 2.15c-1.15.23-1.85.34-2.09.34v-1.15l.3.03a2.06 2.06 0 0 0 .45.01l.18-.01h.01c.24 0 .72.03 1.45.1.94.08 1.45.16 1.54.25-.08.05-.7.2-1.84.43zm2.89.04c-.35.29-1 .51-1.96.68-.78.14-1.5.2-2.18.2h-.64c.06 0 .2-.03.41-.07.22-.05.37-.07.47-.07.93 0 2.22-.3 3.86-.92l.08.03zm-4.92-1.38v-.15l2.31.29zm-.94-2.37l-.06.7c-.04.02-.06 0-.09 0-.03-.02-.04-.05-.03-.08l.26-1.5.05.23c-.05.09-.1.3-.13.65zm.63.16h-.05l.07-.64h.05zm2.75 2.36h.08v.05h-.08zm-1.72-1.76h.12v.06h-.12zm4.12 2.1c-.06.07-.11.1-.15.1-.02 0-.06-.04-.12-.1-.23-.22-.55-.4-.94-.54-.45-.16-1.05-.29-1.77-.4l-1.83-.23c0-.03.02-.1.06-.18l.83.06.11.02.92.16c.57.1 1.11.2 1.63.33.9.23 1.35.45 1.35.64 0 .04-.03.08-.1.14zm-5.1-3.43h.05v.09h-.05zm.45 1.07v-.14c0-.13.07-.47.22-1.02l1.2.2c.46.09.85.2 1.16.36-1.27.31-2.14.51-2.58.6zm3.9-.28l-.39.28-.04-.16.47-.23zm-.75-.46c-.03 0-.07-.03-.12-.08a1.43 1.43 0 0 0-.33-.25l-.36-.18h.16c.07 0 .28.04.63.13.36.08.57.14.64.17a2.5 2.5 0 0 1-.62.21zm2.12 3.76a.74.74 0 0 0-.16-.22l.15-.17a.35.35 0 0 0 .04-.2c0-.44-.44-.83-1.32-1.16a7.6 7.6 0 0 0-1.02-.29 59.7 59.7 0 0 1-.55-.13l.03-.01h.07c.1 0 .34-.05.75-.15.97-.27 1.45-.68 1.45-1.25l-.12-.32c-.2-.55-.81-.94-1.82-1.14-.57-.12-1.36-.18-2.38-.2a.75.75 0 0 1-.25-.18.92.92 0 0 0-.17.08.53.53 0 0 1-.16.07c-.04 0-.08 0-.14-.02l-.13-.03-1.13-.05-.5 5.68a6.34 6.34 0 0 0 0 .87.5.5 0 0 0 .1.01c.07 0 .13-.01.19-.04l.02.07-.3.03c-.11.02-.17.07-.17.17 0 .09.07.17.22.24.13.05.25.08.35.08.03 0 .07-.01.12-.04l.1-.03c.22-.04.41-.06.58-.06l.08.01.1.18c.05.08.1.12.15.12.07 0 .17-.04.28-.13a.7.7 0 0 0 .06-.18l.14.01c.05.02.1.02.13.02 1.23 0 2.24-.09 3.04-.26a9.48 9.48 0 0 0 1.35-.36c.6-.21.91-.47.91-.78a.66.66 0 0 0-.09-.24z"/><path id="pxdkd" d="M663.76 2920.97l-.05-.03.08-.1.04.02zm1.14-2.04a.14.14 0 0 1-.03-.1l.03-.09h.1l.05.11a.3.3 0 0 1-.15.08zm-.4-.46c-.77-.7-1.57-1.53-2.4-2.49l2.44 2.42zm1.93-1.12c-.43.51-.76.85-1 1.03a.32.32 0 0 0-.04-.09c.02-.1.33-.43.92-1 .5-.47.87-.82 1.15-1.06-.19.17-.53.54-1.03 1.12zm-1.04.95v-.01zm3.44-2.98c-.11-.1-.21-.15-.3-.15-.25.2-.43.35-.54.46a.59.59 0 0 0-.17-.28c-.1-.1-.19-.14-.27-.14h-.07l-2.52 2.72a28.28 28.28 0 0 1-1.81-1.9c-.42-.46-.7-.72-.84-.81a.32.32 0 0 0-.19-.05c-.11 0-.27.11-.46.34l-.1-.02-.1-.01c-.09 0-.18.03-.25.1a.33.33 0 0 0-.12.26c0 .04.1.18.31.42-.27.11-.4.24-.4.4 0 .05.05.13.14.21.58.57 1.44 1.4 2.59 2.45l-1.98 2.01c.12.18.23.31.35.4-.23.28-.4.48-.5.62.18.21.3.32.37.32.09 0 .2-.06.3-.18l.66-.76c.27-.31.5-.55.7-.71v.03c-.22.28-.44.55-.67.81-.34.44-.52.7-.52.79 0 .07.05.14.14.23.1.08.18.12.26.12.07 0 .16-.07.25-.22l.2-.32c.29-.4.68-.87 1.17-1.39l1.26-1.33c.87-.93 1.72-1.78 2.55-2.55.32-.3.47-.48.47-.58 0-.15-.11-.3-.34-.43.4-.36.6-.55.6-.59 0-.08-.05-.18-.17-.27zm-14.63 3.52c.06-.04.12-.06.17-.08 0 .03 0 .05.02.07h-.2zm.7-.06l.02-.07.88-.12.28.04c-.45.1-.85.15-1.19.15zm-.6-1.04h-.07v-1.48l.06.04c.04.56.06.97.06 1.23v.2zm2.59 1.2c.06 0 .09-.02.09-.04l1.9 2.68a8.86 8.86 0 0 1-1.99-2.65zm2.7 2.66l-.02-.08c-.3-.23-.65-.7-1.03-1.4a48 48 0 0 0 1.26 1.63zm-4.73-3.94v-.49c0-.04 0-.1.02-.17l.02-.17c0-.45 0-.73.02-.82.64.06 1.23.16 1.79.29.84.2 1.34.44 1.49.71-1.68.36-2.8.57-3.34.65zm2.06-2.02h.15v.04h-.15zm2.08 1.81c-.22.12-.37.18-.44.18h-.12c.04-.11.18-.21.42-.3l.56-.14c-.08.07-.22.16-.42.26zm-1.66-1.76h.1v.05h-.1zm1.28 1.22a3.79 3.79 0 0 1-.32-.3c-.1-.09-.27-.2-.49-.31a5 5 0 0 1 1.4.4c-.33.14-.53.21-.6.21zm1.06-.45l-.63-.3c-.46-.16-1-.3-1.6-.42l.13-.04.32.08.94.27c.36.1.66.23.9.37a.09.09 0 0 1-.06.04zm.93 5.21c-.4-.33-.7-.62-.87-.85a32.43 32.43 0 0 1-1.66-2.3c.27-.1.48-.16.62-.2.34-.13.6-.27.8-.43.18-.16.37-.4.57-.71l.2-.37c.1-.2.18-.3.23-.3l-.12-.28a.79.79 0 0 0-.21-.25 4.6 4.6 0 0 0-1.95-.66 14.6 14.6 0 0 0-2.72-.3 7.96 7.96 0 0 0-1.41.02l-.3.04h-.23c-.03-.04-.06-.05-.1-.05-.13 0-.28.11-.46.34v6.15c.07.12.18.18.33.18.04 0 .09-.01.15-.04a.52.52 0 0 1 .13-.04l.05.01.05.02c.1 0 .15-.1.15-.3l-.01-.08.03-.03c.12-.03.2-.08.23-.16.05-.1.07-.68.07-1.72.02-.03.08-.04.18-.04l.05.02v1.4c0-.09-.03.12-.08.61-.03.03-.04.05-.04.07 0 .26.09.4.26.42.02 0 .04 0 .06.03l.06.03c.04 0 .08-.02.12-.06.05-.04.08-.07.08-.09a18.66 18.66 0 0 0 .04-2.44l.02-.05c.16 0 .61-.05 1.37-.16.63 1.06 1.26 1.9 1.88 2.55.58.6.97.9 1.19.9.03 0 .1-.02.18-.06a.53.53 0 0 1 .2-.05h.18l.2-.07c.06-.08.1-.14.1-.17 0-.02-.03-.06-.09-.13a.96.96 0 0 1-.1-.13h.04l.22.21c.08.1.16.14.24.14.27 0 .4-.08.4-.25 0-.05-.1-.18-.33-.37zm-.69.78h.01z"/><path id="pxdke" d="M657 2900h.1v.15h-.1zm7 5l.03.03zm.03.03l.02-.03.01.02-.03.02.07.08-.01.01-.06-.09-.03.03.02-.03h.01zm1.9 2.51c.05.17.07.33.07.46l-1.69-2.53.05-.03c1 1.23 1.53 1.93 1.57 2.1zm-1.57-2.1l-.26-.32.03-.02-.07-.08.03-.02.3.43zm-.05.03v.01l-.31-.41.07.08.02-.02zm-.18-1.22l-.13-.2.09-.05.12.2zm-5.03-4.93h-.1l.07-.32h.1zm7.9 1.68h.1v.26h-.1zm0-.8h.1v.11h-.1zm3 11.18c0-.66-.04-1.4-.1-2.23l-.07-.74-.12-7.58.02-.14.05-.41c.05-.42.07-.82.07-1.21v-1.55a.65.65 0 0 0-.1-.38 1.45 1.45 0 0 0-.62-.14c-.36 0-.52.12-.52.34v5c0 .28.03.7.08 1.24s.08.95.08 1.23v4.14c0 .08-.01.15-.03.2a2.33 2.33 0 0 1-.42-.52c-.1-.4-.18-.94-.2-1.68.02.38.02-.2.02-1.75l-.03-.75-.03-.78c0-.05.05-.17.05-.22v-1.38c0-.43.03-1.07.12-1.93.08-.87.11-1.5.11-1.93 0-.49-.22-.73-.66-.73-.42 0-.63.2-.63.57 0 .23.12.83.12 1.05 0 .26-.05.56-.17.87-.01-.13-.05-.49-.07-1.1a2.2 2.2 0 0 0-.2-1.01 1.24 1.24 0 0 0-.51-.14.75.75 0 0 0-.42.12c-.18.09-.26.21-.26.35 0 .14.12.41.14.5.05.84.08 1.46.08 1.9l.33 5.36a124 124 0 0 1-3.29-4.24c-1.75-2.33-2.63-3.63-2.63-3.88 0-.06.01-.09.03-.13-.22-.18-.44-.29-.68-.29-.19 0-.32.1-.4.3-.03.03-.06.22-.14.55-.05-.2-.1-.31-.14-.33-.32-.22-.83-.33-1.53-.33-.3 0-.46.1-.46.33 0 .43 0 .6.02.52-.02.13-.15.53-.15.72l.01.33-.13-.05c0-.14.08-.52.08-.66 0-.74 0-1.07-.02-.95-.5-.12-.76-.18-.81-.18-.22 0-.34.15-.34.46 0 .43-.04 1-.09 1.67-.25 2.92-.39 6.85-.44 11.78.22.15.34.24.37.24.34 0 .61-.1.8-.33.2-.22.4-.33.58-.33.32 0 .48 0 .46.02.07-.02.17-.14.33-.33.04-1.05.18-2.76.4-5.12.27-2.8.48-4.27.6-4.4l.13.16-.81 9.26v.1c-.02.26.1.38.32.38h.3c.41 0 .62-.43.62-1.27v-.35c0-.07.05-.97.17-2.67.15-2.05.24-3.31.29-3.8.01-.13.05-.22.1-.27l1.48 1.88c.44.52.78.9 1.02 1.16l2.17 2.4c1.35 1.48 2.3 2.7 2.88 3.68.12 0 .27-.05.46-.16.24-.15.36-.39.37-.74.02-.34.1-.55.3-.63.25.32.4.53.45.65.07.16.14.4.19.76.14.09.24.14.32.14.22 0 .7-.4.7-.62zm-26-3.38c.08-.2.16-.35.26-.45 2.36-.27 4.12-.45 5.3-.55.26.41.41.68.44.8zm1.08-3.78l-.08-.04.07-.18h.08zM645 2906l2.17-4c.9 2.03 1.5 3.23 1.83 3.54v.46zm6.84 1.94c-.18.01-.33.05-.43.06-.18-.44-.31-.79-.41-1h.38l.46.94zm-1.46-1.74c-.18 0-.31-.07-.38-.2l.31.05.07.15zm-.88-1.2c-.24-.45-.4-.78-.5-1l.71 1zm-.43-1.83l-.07-.15.08-.02.07.17zm5.93 4.98c-.22-.28-.72-.3-.8-.42a8.88 8.88 0 0 1-1.31-1.84l.51-.27c0-.07-.08-.17-.24-.32-.15-.15-.26-.23-.32-.23-.33 0-.54-.04-.62-.09-.43-.25-1.7-2.58-3.85-6.97-.22-.46-.67-.68-1.38-.68h-.36a8.6 8.6 0 0 1-.9 1.92c-.58.97-.92 1.58-1.04 1.82l-1 2.14c-.69 1.5-1.13 2.24-1.32 2.24h-.08l-.04-.03c1.74-3.2 2.89-5.49 3.47-6.82.17-.39.26-.8.26-1.24-.33-.24-.57-.36-.74-.36a.7.7 0 0 0-.36.12 9.88 9.88 0 0 1-.58 1.73 93.31 93.31 0 0 1-3.65 7.5l-.98 1.52a8.05 8.05 0 0 0-.61 1.21h.23l.14.16a2.6 2.6 0 0 1-.28.46c.14.15.33.27.45.27l.31-.06c.09-.1.17-.3.28-.61.08-.23.22-.44.44-.6l.1.1-.71 1.41c0 .15.29.4.44.4.28 0 .45-.05.52-.13.17-.6.34-.9.51-.9.09 0 .14.04.17.14-.2.36-.3.6-.3.78l.01.12c.2.12.36.16.5.16.04 0 .2-.23.5-.7.3-.5.56-.73.8-.75l3.9-.25.06.05 3.25-.25c.07 0 .4.52.96 1.57.57 1.03.95 1.55 1.13 1.55l.28-.07.07-.29-1.48-2.73.05-.1h.38c.09.15.19.32.3.47.13.19.27.3.42.3-.02 0 .12-.1.41-.25.56.97.91 1.45 1.07 1.45.33 0 .74-.37.74-.69 0-.12-.27-.59-.83-1.42.6-.15.97-.33 1.12-.52zm-16 1.27c0-.1.02-.2.06-.34-.5-.01-.86-.02-1.08 0h-.46l1.65-.3.02-.05a.9.9 0 0 1 .07-.26l-.26-.22a1.68 1.68 0 0 0-.68-.13l-7.94.23a.75.75 0 0 1-.44-.13l3.73-.47c.49 0 1.21.01 2.19.06.97.05 1.72.07 2.2.07.19 0 .46-.03.81-.08.42-.07.68-.14.76-.22a.51.51 0 0 0 .02-.25c.1-.02.21-.07.35-.15v-.2a2.8 2.8 0 0 1-.32-.34l-.3-.05-.1-.03c-1.03 0-2.06.03-3.09.11l-.9.1c-.38.05-.68.07-.91.07-2.28 0-3.73-.05-4.39-.17a1 1 0 0 1-.05-.33 49.83 49.83 0 0 1 .53-7.88c0-.56-.27-.82-.81-.82-.09 0-.3.05-.4.05v-.04l-.04-.3c-.25-.2-.46-.3-.64-.3-.14 0-.44.18-.52.18-.22 0-.75-.23-.96-.23-.12 0-.26.29-.27.42a62.21 62.21 0 0 0-.19 5.87l-.01 3.06c-.06.07-.1.1-.16.1v2.64c.29.03.46.1.53.2-.06.22-.09.38-.1.5a3.27 3.27 0 0 0-.55-.05.93.93 0 0 0-.35.05v.54c0 .3.46.47 1.37.48l9.88.19c.7 0 1.03-.17 1.03-.5 0-.19-.12-.29-.37-.3l-.1-.1c.25-.06.67-.1 1.26-.1-.01-.08.02-.19.08-.3-.09-.1-.15-.2-.15-.28zM628.58 2899a60.48 60.48 0 0 0-.19 5.2c0 .85.02 1.8.04 2.8H628l.38-7.02c.07-.44.13-.75.2-.98zm8.42 10h.27v.1H637zm-8-10h.1v.17h-.1zm10.28 7.56h.01c-.01-.02-.01-.02-.01 0zM614 2905h.15v.1H614zm-.74-2.32c0 .08-.05.17-.13.32a5.5 5.5 0 0 1-.13-.7l.15-4.3v.93c-.02.77 0 1.6.05 2.5l.03.62.03.63zm.74.32c.05-2.4.13-4.06.25-5 .08.67.15 1.47.18 2.4l.07 2.4zm3.07.18l-.07-.03.02-.05h.09zm-.05-.08H617v-.1h.15v.1h-.04l.04-.07-.08-.03zm5.98-.1c-.12.26-.23.45-.35.53l-.62.21-.15.3c-1.78.59-4.08.91-6.88.96v-.23c.13-.11.76-.2 1.85-.31.46-.05 1.12-.11 1.96-.16.12-.08.45-.15 1.04-.23.75-.11 1.3-.22 1.68-.31a3.32 3.32 0 0 0 1.47-.76zm-5.77-1.27l-.98.27H616l.05-1.51c0-.18-.02-.3-.05-.34.05-.4.08-.7.06-.89v-.13l.2-.1.21-.03h.48c.43 0 1.12.11 2.09.32.98.21 1.63.4 1.96.58v.65zm7.46-.59c0 .2-.07.5-.18.86-.2-.92-.51-1.42-.51-1.53 0-.1.06-.36.06-.47.12.05.25.2.4.47.15.28.23.5.23.67zm1.31.35c0-1.23-.89-2.2-2.67-2.9-1.1-.45-2.51-.77-4.2-.96l-4.48-.5c-.7-.1-1.14-.13-1.3-.13-.09 0-.18 0-.26.02l-.22.2c-.18 0-.57-.18-.75-.18-.42 0-.69.03-.8.11-.19.12-.27.36-.27.75l-.05 13.02c0 .2.17.62.35.62.42 0 .67-.26.72-.77.04.04.1.05.22.05.35 0 .58-.17.67-.53.03-.12.05-.44.05-.95l-.03-1.2c-.02-.53-.02-.93-.02-1.2l.02-.76c.04-.07.1-.1.16-.1a47.52 47.52 0 0 1-.04 2.98c0 .82-.03 1.44-.03 1.85l.02.84c.15.17.29.25.42.25.25 0 .65-.27.65-.5 0-.29-.12-.98-.12-1.27v-4.15h.49l.1.1-.24 4.98c.3.21.48.31.53.31.2 0 .56-.29.56-.5l-.03-1.97c-.02-.88-.02-1.54-.02-1.98 0-.45.04-.79.1-1l2.48-.16c.95-.07 1.77-.17 2.46-.3 1.32-.23 2.3-.5 2.99-.83 1-.5 1.74-1.2 2.2-2.13.23-.48.34-.85.34-1.11z"/></defs><g><g transform="translate(-611 -2897)"><use fill="#191919" xlink:href="#pxdka"/></g><g transform="translate(-611 -2897)"><use fill="#191919" xlink:href="#pxdkb"/></g><g transform="translate(-611 -2897)"><use fill="#191919" xlink:href="#pxdkc"/></g><g transform="translate(-611 -2897)"><use fill="#191919" xlink:href="#pxdkd"/></g><g transform="translate(-611 -2897)"><use fill="#191919" xlink:href="#pxdke"/></g></g></svg>