<svg xmlns="http://www.w3.org/2000/svg" xmlns:xlink="http://www.w3.org/1999/xlink" width="110" height="94" viewBox="0 0 110 94"><defs><path id="6w3da" d="M229.87 2038.69c.3.07.49.35.47.66l-.06.7c-.02.24.1.46.3.58l.84.53c1.43 2.92 2.75 5.6 3.98 8.07.12.24.42.29.6.1 2-2.2 4.41-4.82 7.26-7.84a.66.66 0 0 0 .01-.9l-4.6-4.78-.2-1a.61.61 0 0 0-.44-.46l-.67-.17a.63.63 0 0 1-.46-.66l.06-.85c.03-.35-.22-.66-.56-.67-.8-.02-2.38.21-4.6 1.84-2.2 1.63-2.93 3.08-3.16 3.87-.1.34.1.69.43.77zm43.24 29.82a14.16 14.16 0 0 0-4.87-4.35l-5.25-2.84a9.85 9.85 0 0 1-2.79-2.25l-2.68-3.06a.4.4 0 0 0-.65.08 455.11 455.11 0 0 1-8 15.13 6.8 6.8 0 0 0-.79 2.27 16.8 16.8 0 0 0 0 5.18l.05.3c.34 2.2 1.18 4.3 2.46 6.12l26.69 38.17a6.3 6.3 0 0 0 5.93 2.7 21.51 21.51 0 0 0 10.12-4.14 22.27 22.27 0 0 0 7.03-8.46 6.71 6.71 0 0 0-.56-6.69zm-29.24 10.46l.94-6.01c.19-1.21.59-2.37 1.18-3.43 1.92-3.43 6.9-12.56 14.59-28.37l.85-.53c.2-.12.3-.34.29-.57l-.06-.7a.63.63 0 0 1 .47-.67l.8-.2a.61.61 0 0 0 .44-.78c-.24-.79-.96-2.24-3.18-3.86-2.2-1.63-3.78-1.87-4.58-1.85a.6.6 0 0 0-.57.67l.06.85c.03.3-.17.58-.46.66l-.67.17a.61.61 0 0 0-.44.47l-.2 1a569.42 569.42 0 0 0-21.53 23.26 9.88 9.88 0 0 1-2.79 2.24l-5.25 2.84a14.14 14.14 0 0 0-4.87 4.35l-26.7 38.16a6.71 6.71 0 0 0-.55 6.7 22.29 22.29 0 0 0 7.03 8.45 21.52 21.52 0 0 0 10.06 4.12c2.33.3 4.62-.72 6-2.68l26.68-38.17a14.61 14.61 0 0 0 2.46-6.12z"/></defs><g><g transform="translate(-191 -2032)"><use fill="#faab00" xlink:href="#6w3da"/></g></g></svg>